<mxfile host="app.diagrams.net" agent="Mozilla/5.0 (Windows NT 10.0; Win64; x64) AppleWebKit/537.36 (KHTML, like Gecko) Chrome/128.0.0.0 Safari/537.36 OPR/114.0.0.0" version="26.0.11">
  <diagram name="Diagramma di Classi" id="S3ojb1fBHHyWeTU36w3P">
    <mxGraphModel grid="1" page="1" gridSize="10" guides="1" tooltips="1" connect="1" arrows="1" fold="1" pageScale="1" pageWidth="2339" pageHeight="3300" math="0" shadow="0">
      <root>
        <mxCell id="0" />
        <mxCell id="1" parent="0" />
        <mxCell id="eN_zWoKMtYBoBzhjnoyu-1" value="WebConnector" style="swimlane;fontStyle=2;align=center;verticalAlign=top;childLayout=stackLayout;horizontal=1;startSize=26;horizontalStack=0;resizeParent=1;resizeLast=0;collapsible=1;marginBottom=0;rounded=0;shadow=0;strokeWidth=1;" vertex="1" parent="1">
          <mxGeometry x="1070" y="1680" width="160" height="170" as="geometry">
            <mxRectangle x="230" y="140" width="160" height="26" as="alternateBounds" />
          </mxGeometry>
        </mxCell>
        <mxCell id="eN_zWoKMtYBoBzhjnoyu-2" value="- String connectionName&#xa;- altri dati della connessione" style="text;align=left;verticalAlign=top;spacingLeft=4;spacingRight=4;overflow=hidden;rotatable=0;points=[[0,0.5],[1,0.5]];portConstraint=eastwest;" vertex="1" parent="eN_zWoKMtYBoBzhjnoyu-1">
          <mxGeometry y="26" width="160" height="44" as="geometry" />
        </mxCell>
        <mxCell id="eN_zWoKMtYBoBzhjnoyu-3" value="" style="line;html=1;strokeWidth=1;align=left;verticalAlign=middle;spacingTop=-1;spacingLeft=3;spacingRight=3;rotatable=0;labelPosition=right;points=[];portConstraint=eastwest;" vertex="1" parent="eN_zWoKMtYBoBzhjnoyu-1">
          <mxGeometry y="70" width="160" height="8" as="geometry" />
        </mxCell>
        <mxCell id="eN_zWoKMtYBoBzhjnoyu-4" value="+ openConnection();&#xa;+ closeConnection();&#xa;+ qualche get e set" style="text;align=left;verticalAlign=top;spacingLeft=4;spacingRight=4;overflow=hidden;rotatable=0;points=[[0,0.5],[1,0.5]];portConstraint=eastwest;" vertex="1" parent="eN_zWoKMtYBoBzhjnoyu-1">
          <mxGeometry y="78" width="160" height="58" as="geometry" />
        </mxCell>
        <mxCell id="eN_zWoKMtYBoBzhjnoyu-5" value="htmlResponseHandler" style="swimlane;fontStyle=2;align=center;verticalAlign=top;childLayout=stackLayout;horizontal=1;startSize=26;horizontalStack=0;resizeParent=1;resizeLast=0;collapsible=1;marginBottom=0;rounded=0;shadow=0;strokeWidth=1;" vertex="1" parent="1">
          <mxGeometry x="950" y="1382" width="160" height="138" as="geometry">
            <mxRectangle x="230" y="140" width="160" height="26" as="alternateBounds" />
          </mxGeometry>
        </mxCell>
        <mxCell id="eN_zWoKMtYBoBzhjnoyu-6" value="- dati di tutte le classi per &#xa;gestirle&#xa;Interfaccia?" style="text;align=left;verticalAlign=top;spacingLeft=4;spacingRight=4;overflow=hidden;rotatable=0;points=[[0,0.5],[1,0.5]];portConstraint=eastwest;" vertex="1" parent="eN_zWoKMtYBoBzhjnoyu-5">
          <mxGeometry y="26" width="160" height="64" as="geometry" />
        </mxCell>
        <mxCell id="eN_zWoKMtYBoBzhjnoyu-7" value="" style="line;html=1;strokeWidth=1;align=left;verticalAlign=middle;spacingTop=-1;spacingLeft=3;spacingRight=3;rotatable=0;labelPosition=right;points=[];portConstraint=eastwest;" vertex="1" parent="eN_zWoKMtYBoBzhjnoyu-5">
          <mxGeometry y="90" width="160" height="8" as="geometry" />
        </mxCell>
        <mxCell id="eN_zWoKMtYBoBzhjnoyu-8" value="+ metodo per creare&amp;nbsp;&lt;div&gt;l&#39;homepage&lt;/div&gt;" style="text;html=1;align=left;verticalAlign=middle;resizable=0;points=[];autosize=1;strokeColor=none;fillColor=none;" vertex="1" parent="eN_zWoKMtYBoBzhjnoyu-5">
          <mxGeometry y="98" width="160" height="40" as="geometry" />
        </mxCell>
        <mxCell id="eN_zWoKMtYBoBzhjnoyu-10" value="htmlRequestHandler" style="swimlane;fontStyle=2;align=center;verticalAlign=top;childLayout=stackLayout;horizontal=1;startSize=26;horizontalStack=0;resizeParent=1;resizeLast=0;collapsible=1;marginBottom=0;rounded=0;shadow=0;strokeWidth=1;" vertex="1" parent="1">
          <mxGeometry x="1190" y="1380" width="160" height="140" as="geometry">
            <mxRectangle x="230" y="140" width="160" height="26" as="alternateBounds" />
          </mxGeometry>
        </mxCell>
        <mxCell id="eN_zWoKMtYBoBzhjnoyu-11" value="- dati di tutte le classi per &#xa;gestirle" style="text;align=left;verticalAlign=top;spacingLeft=4;spacingRight=4;overflow=hidden;rotatable=0;points=[[0,0.5],[1,0.5]];portConstraint=eastwest;" vertex="1" parent="eN_zWoKMtYBoBzhjnoyu-10">
          <mxGeometry y="26" width="160" height="64" as="geometry" />
        </mxCell>
        <mxCell id="eN_zWoKMtYBoBzhjnoyu-12" value="" style="line;html=1;strokeWidth=1;align=left;verticalAlign=middle;spacingTop=-1;spacingLeft=3;spacingRight=3;rotatable=0;labelPosition=right;points=[];portConstraint=eastwest;" vertex="1" parent="eN_zWoKMtYBoBzhjnoyu-10">
          <mxGeometry y="90" width="160" height="8" as="geometry" />
        </mxCell>
        <mxCell id="eN_zWoKMtYBoBzhjnoyu-14" value="Concessionaria" style="swimlane;fontStyle=2;align=center;verticalAlign=top;childLayout=stackLayout;horizontal=1;startSize=26;horizontalStack=0;resizeParent=1;resizeLast=0;collapsible=1;marginBottom=0;rounded=0;shadow=0;strokeWidth=1;" vertex="1" parent="1">
          <mxGeometry x="1320" y="1010" width="190" height="158" as="geometry">
            <mxRectangle x="230" y="140" width="160" height="26" as="alternateBounds" />
          </mxGeometry>
        </mxCell>
        <mxCell id="eN_zWoKMtYBoBzhjnoyu-15" value="- array di kart&#xa;- array di pezzi" style="text;align=left;verticalAlign=top;spacingLeft=4;spacingRight=4;overflow=hidden;rotatable=0;points=[[0,0.5],[1,0.5]];portConstraint=eastwest;" vertex="1" parent="eN_zWoKMtYBoBzhjnoyu-14">
          <mxGeometry y="26" width="190" height="64" as="geometry" />
        </mxCell>
        <mxCell id="eN_zWoKMtYBoBzhjnoyu-16" value="" style="line;html=1;strokeWidth=1;align=left;verticalAlign=middle;spacingTop=-1;spacingLeft=3;spacingRight=3;rotatable=0;labelPosition=right;points=[];portConstraint=eastwest;" vertex="1" parent="eN_zWoKMtYBoBzhjnoyu-14">
          <mxGeometry y="90" width="190" height="8" as="geometry" />
        </mxCell>
        <mxCell id="eN_zWoKMtYBoBzhjnoyu-17" value="&lt;div&gt;&lt;span style=&quot;background-color: transparent; color: light-dark(rgb(0, 0, 0), rgb(255, 255, 255));&quot;&gt;+ vendita kart&lt;/span&gt;&lt;/div&gt;&lt;div&gt;&lt;span style=&quot;background-color: transparent; color: light-dark(rgb(0, 0, 0), rgb(255, 255, 255));&quot;&gt;+ inserimento kart vetrina&lt;/span&gt;&lt;/div&gt;&lt;div&gt;&lt;span style=&quot;background-color: transparent; color: light-dark(rgb(0, 0, 0), rgb(255, 255, 255));&quot;&gt;+ inserimento pezzi di ricambio&lt;/span&gt;&lt;/div&gt;" style="text;html=1;align=left;verticalAlign=middle;resizable=0;points=[];autosize=1;strokeColor=none;fillColor=none;" vertex="1" parent="eN_zWoKMtYBoBzhjnoyu-14">
          <mxGeometry y="98" width="190" height="60" as="geometry" />
        </mxCell>
        <mxCell id="eN_zWoKMtYBoBzhjnoyu-18" value="Dipendente" style="swimlane;fontStyle=2;align=center;verticalAlign=top;childLayout=stackLayout;horizontal=1;startSize=26;horizontalStack=0;resizeParent=1;resizeLast=0;collapsible=1;marginBottom=0;rounded=0;shadow=0;strokeWidth=1;" vertex="1" parent="1">
          <mxGeometry x="1290" y="420" width="220" height="130" as="geometry">
            <mxRectangle x="230" y="140" width="160" height="26" as="alternateBounds" />
          </mxGeometry>
        </mxCell>
        <mxCell id="eN_zWoKMtYBoBzhjnoyu-19" value="- dati in piÃ¹ del dipendente" style="text;align=left;verticalAlign=top;spacingLeft=4;spacingRight=4;overflow=hidden;rotatable=0;points=[[0,0.5],[1,0.5]];portConstraint=eastwest;" vertex="1" parent="eN_zWoKMtYBoBzhjnoyu-18">
          <mxGeometry y="26" width="220" height="44" as="geometry" />
        </mxCell>
        <mxCell id="eN_zWoKMtYBoBzhjnoyu-20" value="" style="line;html=1;strokeWidth=1;align=left;verticalAlign=middle;spacingTop=-1;spacingLeft=3;spacingRight=3;rotatable=0;labelPosition=right;points=[];portConstraint=eastwest;" vertex="1" parent="eN_zWoKMtYBoBzhjnoyu-18">
          <mxGeometry y="70" width="220" height="28" as="geometry" />
        </mxCell>
        <mxCell id="eN_zWoKMtYBoBzhjnoyu-22" value="Socio" style="swimlane;fontStyle=2;align=center;verticalAlign=top;childLayout=stackLayout;horizontal=1;startSize=26;horizontalStack=0;resizeParent=1;resizeLast=0;collapsible=1;marginBottom=0;rounded=0;shadow=0;strokeWidth=1;" vertex="1" parent="1">
          <mxGeometry x="990" y="420" width="160" height="170" as="geometry">
            <mxRectangle x="230" y="140" width="160" height="26" as="alternateBounds" />
          </mxGeometry>
        </mxCell>
        <mxCell id="mPpl8cgrafQ_4U4LnAEe-3" value="- array di kart" style="text;align=left;verticalAlign=top;spacingLeft=4;spacingRight=4;overflow=hidden;rotatable=0;points=[[0,0.5],[1,0.5]];portConstraint=eastwest;" vertex="1" parent="eN_zWoKMtYBoBzhjnoyu-22">
          <mxGeometry y="26" width="160" height="44" as="geometry" />
        </mxCell>
        <mxCell id="eN_zWoKMtYBoBzhjnoyu-24" value="" style="line;html=1;strokeWidth=1;align=left;verticalAlign=middle;spacingTop=-1;spacingLeft=3;spacingRight=3;rotatable=0;labelPosition=right;points=[];portConstraint=eastwest;" vertex="1" parent="eN_zWoKMtYBoBzhjnoyu-22">
          <mxGeometry y="70" width="160" height="28" as="geometry" />
        </mxCell>
        <mxCell id="eN_zWoKMtYBoBzhjnoyu-25" value="+ classifica gara&lt;br&gt;+ registrarsi&lt;div&gt;+ login&lt;/div&gt;&lt;div&gt;+ comprare kart&lt;/div&gt;" style="text;html=1;align=left;verticalAlign=middle;resizable=0;points=[];autosize=1;strokeColor=none;fillColor=none;" vertex="1" parent="eN_zWoKMtYBoBzhjnoyu-22">
          <mxGeometry y="98" width="160" height="70" as="geometry" />
        </mxCell>
        <mxCell id="eN_zWoKMtYBoBzhjnoyu-29" value="Campionato" style="swimlane;fontStyle=2;align=center;verticalAlign=top;childLayout=stackLayout;horizontal=1;startSize=26;horizontalStack=0;resizeParent=1;resizeLast=0;collapsible=1;marginBottom=0;rounded=0;shadow=0;strokeWidth=1;" vertex="1" parent="1">
          <mxGeometry x="740" y="820" width="160" height="138" as="geometry">
            <mxRectangle x="230" y="140" width="160" height="26" as="alternateBounds" />
          </mxGeometry>
        </mxCell>
        <mxCell id="eN_zWoKMtYBoBzhjnoyu-30" value="- array di soci&#xa;- kart associati" style="text;align=left;verticalAlign=top;spacingLeft=4;spacingRight=4;overflow=hidden;rotatable=0;points=[[0,0.5],[1,0.5]];portConstraint=eastwest;" vertex="1" parent="eN_zWoKMtYBoBzhjnoyu-29">
          <mxGeometry y="26" width="160" height="64" as="geometry" />
        </mxCell>
        <mxCell id="eN_zWoKMtYBoBzhjnoyu-31" value="" style="line;html=1;strokeWidth=1;align=left;verticalAlign=middle;spacingTop=-1;spacingLeft=3;spacingRight=3;rotatable=0;labelPosition=right;points=[];portConstraint=eastwest;" vertex="1" parent="eN_zWoKMtYBoBzhjnoyu-29">
          <mxGeometry y="90" width="160" height="8" as="geometry" />
        </mxCell>
        <mxCell id="eN_zWoKMtYBoBzhjnoyu-32" value="- generazione classifica&amp;nbsp;&lt;div&gt;campionato&lt;/div&gt;" style="text;html=1;align=center;verticalAlign=middle;resizable=0;points=[];autosize=1;strokeColor=none;fillColor=none;" vertex="1" parent="eN_zWoKMtYBoBzhjnoyu-29">
          <mxGeometry y="98" width="160" height="40" as="geometry" />
        </mxCell>
        <mxCell id="eN_zWoKMtYBoBzhjnoyu-37" value="Pezzo" style="swimlane;fontStyle=2;align=center;verticalAlign=top;childLayout=stackLayout;horizontal=1;startSize=26;horizontalStack=0;resizeParent=1;resizeLast=0;collapsible=1;marginBottom=0;rounded=0;shadow=0;strokeWidth=1;" vertex="1" parent="1">
          <mxGeometry x="1430" y="1280" width="160" height="120" as="geometry">
            <mxRectangle x="230" y="140" width="160" height="26" as="alternateBounds" />
          </mxGeometry>
        </mxCell>
        <mxCell id="eN_zWoKMtYBoBzhjnoyu-38" value="- nome del pezzo&#xa;- colore" style="text;align=left;verticalAlign=top;spacingLeft=4;spacingRight=4;overflow=hidden;rotatable=0;points=[[0,0.5],[1,0.5]];portConstraint=eastwest;" vertex="1" parent="eN_zWoKMtYBoBzhjnoyu-37">
          <mxGeometry y="26" width="160" height="64" as="geometry" />
        </mxCell>
        <mxCell id="eN_zWoKMtYBoBzhjnoyu-39" value="" style="line;html=1;strokeWidth=1;align=left;verticalAlign=middle;spacingTop=-1;spacingLeft=3;spacingRight=3;rotatable=0;labelPosition=right;points=[];portConstraint=eastwest;" vertex="1" parent="eN_zWoKMtYBoBzhjnoyu-37">
          <mxGeometry y="90" width="160" height="8" as="geometry" />
        </mxCell>
        <mxCell id="eN_zWoKMtYBoBzhjnoyu-40" value="" style="endArrow=classic;html=1;rounded=0;dashed=1;entryX=0.756;entryY=1.044;entryDx=0;entryDy=0;exitX=0.5;exitY=0;exitDx=0;exitDy=0;entryPerimeter=0;" edge="1" parent="1" source="eN_zWoKMtYBoBzhjnoyu-37" target="eN_zWoKMtYBoBzhjnoyu-17">
          <mxGeometry width="50" height="50" relative="1" as="geometry">
            <mxPoint x="1520" y="930" as="sourcePoint" />
            <mxPoint x="1330" y="1200" as="targetPoint" />
            <Array as="points">
              <mxPoint x="1510" y="1240" />
              <mxPoint x="1464" y="1240" />
            </Array>
          </mxGeometry>
        </mxCell>
        <mxCell id="eN_zWoKMtYBoBzhjnoyu-41" value="Team" style="swimlane;fontStyle=2;align=center;verticalAlign=top;childLayout=stackLayout;horizontal=1;startSize=26;horizontalStack=0;resizeParent=1;resizeLast=0;collapsible=1;marginBottom=0;rounded=0;shadow=0;strokeWidth=1;" vertex="1" parent="1">
          <mxGeometry x="740" y="460" width="160" height="120" as="geometry">
            <mxRectangle x="230" y="140" width="160" height="26" as="alternateBounds" />
          </mxGeometry>
        </mxCell>
        <mxCell id="eN_zWoKMtYBoBzhjnoyu-42" value="- array di utenti&#xa;- array di kart" style="text;align=left;verticalAlign=top;spacingLeft=4;spacingRight=4;overflow=hidden;rotatable=0;points=[[0,0.5],[1,0.5]];portConstraint=eastwest;" vertex="1" parent="eN_zWoKMtYBoBzhjnoyu-41">
          <mxGeometry y="26" width="160" height="64" as="geometry" />
        </mxCell>
        <mxCell id="eN_zWoKMtYBoBzhjnoyu-43" value="" style="line;html=1;strokeWidth=1;align=left;verticalAlign=middle;spacingTop=-1;spacingLeft=3;spacingRight=3;rotatable=0;labelPosition=right;points=[];portConstraint=eastwest;" vertex="1" parent="eN_zWoKMtYBoBzhjnoyu-41">
          <mxGeometry y="90" width="160" height="8" as="geometry" />
        </mxCell>
        <mxCell id="eN_zWoKMtYBoBzhjnoyu-44" value="" style="endArrow=classic;html=1;rounded=0;exitX=0.5;exitY=0;exitDx=0;exitDy=0;dashed=1;startFill=0;endFill=1;entryX=0.5;entryY=1;entryDx=0;entryDy=0;" edge="1" parent="1" source="eN_zWoKMtYBoBzhjnoyu-29" target="eN_zWoKMtYBoBzhjnoyu-41">
          <mxGeometry width="50" height="50" relative="1" as="geometry">
            <mxPoint x="720" y="1198" as="sourcePoint" />
            <mxPoint x="800" y="580" as="targetPoint" />
            <Array as="points">
              <mxPoint x="820" y="750" />
            </Array>
          </mxGeometry>
        </mxCell>
        <mxCell id="eN_zWoKMtYBoBzhjnoyu-45" value="" style="endArrow=classic;html=1;rounded=0;dashed=1;entryX=0;entryY=0.017;entryDx=0;entryDy=0;entryPerimeter=0;exitX=1;exitY=0.5;exitDx=0;exitDy=0;" edge="1" parent="1" source="eN_zWoKMtYBoBzhjnoyu-41" target="eN_zWoKMtYBoBzhjnoyu-25">
          <mxGeometry width="50" height="50" relative="1" as="geometry">
            <mxPoint x="910" y="520" as="sourcePoint" />
            <mxPoint x="980" y="518" as="targetPoint" />
          </mxGeometry>
        </mxCell>
        <mxCell id="mPpl8cgrafQ_4U4LnAEe-5" value="" style="endArrow=classic;html=1;rounded=0;entryX=0.25;entryY=0;entryDx=0;entryDy=0;exitX=0.498;exitY=1.019;exitDx=0;exitDy=0;exitPerimeter=0;" edge="1" parent="1" source="eN_zWoKMtYBoBzhjnoyu-8" target="eN_zWoKMtYBoBzhjnoyu-1">
          <mxGeometry width="50" height="50" relative="1" as="geometry">
            <mxPoint x="1030" y="1530" as="sourcePoint" />
            <mxPoint x="1140" y="1390" as="targetPoint" />
            <Array as="points">
              <mxPoint x="1030" y="1600" />
              <mxPoint x="1110" y="1600" />
            </Array>
          </mxGeometry>
        </mxCell>
        <mxCell id="mPpl8cgrafQ_4U4LnAEe-6" value="" style="endArrow=classic;html=1;rounded=0;entryX=0.75;entryY=0;entryDx=0;entryDy=0;exitX=0.5;exitY=1;exitDx=0;exitDy=0;" edge="1" parent="1" source="eN_zWoKMtYBoBzhjnoyu-10" target="eN_zWoKMtYBoBzhjnoyu-1">
          <mxGeometry width="50" height="50" relative="1" as="geometry">
            <mxPoint x="1270" y="1530" as="sourcePoint" />
            <mxPoint x="1390" y="1711" as="targetPoint" />
            <Array as="points">
              <mxPoint x="1270" y="1600" />
              <mxPoint x="1190" y="1600" />
            </Array>
          </mxGeometry>
        </mxCell>
        <mxCell id="eN_zWoKMtYBoBzhjnoyu-47" value="Organizzatore" style="swimlane;fontStyle=2;align=center;verticalAlign=top;childLayout=stackLayout;horizontal=1;startSize=26;horizontalStack=0;resizeParent=1;resizeLast=0;collapsible=1;marginBottom=0;rounded=0;shadow=0;strokeWidth=1;" vertex="1" parent="1">
          <mxGeometry x="1290" y="650" width="220" height="144" as="geometry">
            <mxRectangle x="230" y="140" width="160" height="26" as="alternateBounds" />
          </mxGeometry>
        </mxCell>
        <mxCell id="eN_zWoKMtYBoBzhjnoyu-49" value="" style="line;html=1;strokeWidth=1;align=left;verticalAlign=middle;spacingTop=-1;spacingLeft=3;spacingRight=3;rotatable=0;labelPosition=right;points=[];portConstraint=eastwest;" vertex="1" parent="eN_zWoKMtYBoBzhjnoyu-47">
          <mxGeometry y="26" width="220" height="28" as="geometry" />
        </mxCell>
        <mxCell id="eN_zWoKMtYBoBzhjnoyu-50" value="+ metodi per creare gare&amp;nbsp;&lt;div&gt;(eventualmente organizzatore)&lt;br&gt;+ creazione team (organizzatore)&lt;br&gt;&lt;/div&gt;&lt;div&gt;+ creazione campionato&lt;/div&gt;&lt;div&gt;+ inserimento gara campionato&lt;/div&gt;" style="text;html=1;align=left;verticalAlign=middle;resizable=0;points=[];autosize=1;strokeColor=none;fillColor=none;" vertex="1" parent="eN_zWoKMtYBoBzhjnoyu-47">
          <mxGeometry y="54" width="220" height="90" as="geometry" />
        </mxCell>
        <mxCell id="eN_zWoKMtYBoBzhjnoyu-51" value="Artbitro" style="swimlane;fontStyle=2;align=center;verticalAlign=top;childLayout=stackLayout;horizontal=1;startSize=26;horizontalStack=0;resizeParent=1;resizeLast=0;collapsible=1;marginBottom=0;rounded=0;shadow=0;strokeWidth=1;" vertex="1" parent="1">
          <mxGeometry x="1570" y="650" width="220" height="120" as="geometry">
            <mxRectangle x="230" y="140" width="160" height="26" as="alternateBounds" />
          </mxGeometry>
        </mxCell>
        <mxCell id="eN_zWoKMtYBoBzhjnoyu-52" value="" style="line;html=1;strokeWidth=1;align=left;verticalAlign=middle;spacingTop=-1;spacingLeft=3;spacingRight=3;rotatable=0;labelPosition=right;points=[];portConstraint=eastwest;" vertex="1" parent="eN_zWoKMtYBoBzhjnoyu-51">
          <mxGeometry y="26" width="220" height="28" as="geometry" />
        </mxCell>
        <mxCell id="eN_zWoKMtYBoBzhjnoyu-53" value="&lt;div&gt;- visione tempi (arbitro)&lt;/div&gt;&lt;div&gt;- inserimento penalitÃ  (arbitro)&lt;br&gt;&lt;br&gt;&lt;/div&gt;" style="text;html=1;align=left;verticalAlign=middle;resizable=0;points=[];autosize=1;strokeColor=none;fillColor=none;" vertex="1" parent="eN_zWoKMtYBoBzhjnoyu-51">
          <mxGeometry y="54" width="220" height="60" as="geometry" />
        </mxCell>
        <mxCell id="mPpl8cgrafQ_4U4LnAEe-9" value="" style="endArrow=classic;html=1;rounded=0;dashed=1;entryX=0;entryY=0.5;entryDx=0;entryDy=0;" edge="1" parent="1" target="eN_zWoKMtYBoBzhjnoyu-6">
          <mxGeometry width="50" height="50" relative="1" as="geometry">
            <mxPoint x="820" y="960" as="sourcePoint" />
            <mxPoint x="930" y="1440" as="targetPoint" />
            <Array as="points">
              <mxPoint x="820" y="1440" />
            </Array>
          </mxGeometry>
        </mxCell>
        <mxCell id="eN_zWoKMtYBoBzhjnoyu-54" value="Proprietario" style="swimlane;fontStyle=2;align=center;verticalAlign=top;childLayout=stackLayout;horizontal=1;startSize=26;horizontalStack=0;resizeParent=1;resizeLast=0;collapsible=1;marginBottom=0;rounded=0;shadow=0;strokeWidth=1;" vertex="1" parent="1">
          <mxGeometry x="1830" y="650" width="220" height="120" as="geometry">
            <mxRectangle x="230" y="140" width="160" height="26" as="alternateBounds" />
          </mxGeometry>
        </mxCell>
        <mxCell id="eN_zWoKMtYBoBzhjnoyu-55" value="" style="line;html=1;strokeWidth=1;align=left;verticalAlign=middle;spacingTop=-1;spacingLeft=3;spacingRight=3;rotatable=0;labelPosition=right;points=[];portConstraint=eastwest;" vertex="1" parent="eN_zWoKMtYBoBzhjnoyu-54">
          <mxGeometry y="26" width="220" height="28" as="geometry" />
        </mxCell>
        <mxCell id="eN_zWoKMtYBoBzhjnoyu-56" value="&lt;div&gt;&lt;div&gt;+ visione bilancio (proprietario)&lt;/div&gt;&lt;div&gt;+ aggiungere dipendenti (proprietario)&lt;br&gt;+ rimozione dipendenti (proprietario)&lt;/div&gt;&lt;/div&gt;" style="text;html=1;align=left;verticalAlign=middle;resizable=0;points=[];autosize=1;strokeColor=none;fillColor=none;" vertex="1" parent="eN_zWoKMtYBoBzhjnoyu-54">
          <mxGeometry y="54" width="220" height="60" as="geometry" />
        </mxCell>
        <mxCell id="eN_zWoKMtYBoBzhjnoyu-57" value="Persona" style="swimlane;fontStyle=2;align=center;verticalAlign=top;childLayout=stackLayout;horizontal=1;startSize=26;horizontalStack=0;resizeParent=1;resizeLast=0;collapsible=1;marginBottom=0;rounded=0;shadow=0;strokeWidth=1;" vertex="1" parent="1">
          <mxGeometry x="1140" y="220" width="160" height="120" as="geometry">
            <mxRectangle x="230" y="140" width="160" height="26" as="alternateBounds" />
          </mxGeometry>
        </mxCell>
        <mxCell id="eN_zWoKMtYBoBzhjnoyu-58" value="- dati della persona" style="text;align=left;verticalAlign=top;spacingLeft=4;spacingRight=4;overflow=hidden;rotatable=0;points=[[0,0.5],[1,0.5]];portConstraint=eastwest;" vertex="1" parent="eN_zWoKMtYBoBzhjnoyu-57">
          <mxGeometry y="26" width="160" height="64" as="geometry" />
        </mxCell>
        <mxCell id="eN_zWoKMtYBoBzhjnoyu-59" value="" style="line;html=1;strokeWidth=1;align=left;verticalAlign=middle;spacingTop=-1;spacingLeft=3;spacingRight=3;rotatable=0;labelPosition=right;points=[];portConstraint=eastwest;" vertex="1" parent="eN_zWoKMtYBoBzhjnoyu-57">
          <mxGeometry y="90" width="160" height="8" as="geometry" />
        </mxCell>
        <mxCell id="eN_zWoKMtYBoBzhjnoyu-60" value="" style="endArrow=block;html=1;rounded=0;exitX=0.5;exitY=0;exitDx=0;exitDy=0;strokeColor=default;endFill=0;entryX=0;entryY=0.75;entryDx=0;entryDy=0;" edge="1" parent="1" source="eN_zWoKMtYBoBzhjnoyu-22" target="eN_zWoKMtYBoBzhjnoyu-57">
          <mxGeometry width="50" height="50" relative="1" as="geometry">
            <mxPoint x="850" y="320" as="sourcePoint" />
            <mxPoint x="960" y="200" as="targetPoint" />
            <Array as="points">
              <mxPoint x="1070" y="310" />
            </Array>
          </mxGeometry>
        </mxCell>
        <mxCell id="eN_zWoKMtYBoBzhjnoyu-61" value="" style="endArrow=block;html=1;rounded=0;exitX=0.5;exitY=0;exitDx=0;exitDy=0;strokeColor=default;endFill=0;entryX=1;entryY=0.75;entryDx=0;entryDy=0;" edge="1" parent="1" source="eN_zWoKMtYBoBzhjnoyu-18" target="eN_zWoKMtYBoBzhjnoyu-57">
          <mxGeometry width="50" height="50" relative="1" as="geometry">
            <mxPoint x="1080" y="430" as="sourcePoint" />
            <mxPoint x="1260" y="340" as="targetPoint" />
            <Array as="points">
              <mxPoint x="1400" y="310" />
            </Array>
          </mxGeometry>
        </mxCell>
        <mxCell id="mPpl8cgrafQ_4U4LnAEe-10" value="" style="endArrow=classic;html=1;rounded=0;dashed=1;exitX=0.25;exitY=1;exitDx=0;exitDy=0;entryX=0.75;entryY=0;entryDx=0;entryDy=0;" edge="1" parent="1" source="eN_zWoKMtYBoBzhjnoyu-14" target="eN_zWoKMtYBoBzhjnoyu-5">
          <mxGeometry width="50" height="50" relative="1" as="geometry">
            <mxPoint x="540" y="860" as="sourcePoint" />
            <mxPoint x="750" y="1340" as="targetPoint" />
            <Array as="points">
              <mxPoint x="1370" y="1280" />
              <mxPoint x="1070" y="1280" />
            </Array>
          </mxGeometry>
        </mxCell>
        <mxCell id="eN_zWoKMtYBoBzhjnoyu-63" value="" style="endArrow=block;html=1;rounded=0;exitX=0.5;exitY=0;exitDx=0;exitDy=0;strokeColor=default;endFill=0;" edge="1" parent="1" source="eN_zWoKMtYBoBzhjnoyu-51">
          <mxGeometry width="50" height="50" relative="1" as="geometry">
            <mxPoint x="1420" y="440" as="sourcePoint" />
            <mxPoint x="1450" y="550" as="targetPoint" />
            <Array as="points">
              <mxPoint x="1680" y="620" />
              <mxPoint x="1450" y="620" />
            </Array>
          </mxGeometry>
        </mxCell>
        <mxCell id="eN_zWoKMtYBoBzhjnoyu-62" value="" style="endArrow=block;html=1;rounded=0;exitX=0.5;exitY=0;exitDx=0;exitDy=0;strokeColor=default;endFill=0;entryX=0.5;entryY=1;entryDx=0;entryDy=0;" edge="1" parent="1" source="eN_zWoKMtYBoBzhjnoyu-47" target="eN_zWoKMtYBoBzhjnoyu-18">
          <mxGeometry width="50" height="50" relative="1" as="geometry">
            <mxPoint x="1410" y="430" as="sourcePoint" />
            <mxPoint x="1270" y="350" as="targetPoint" />
          </mxGeometry>
        </mxCell>
        <mxCell id="eN_zWoKMtYBoBzhjnoyu-64" value="" style="endArrow=block;html=1;rounded=0;exitX=0.5;exitY=0;exitDx=0;exitDy=0;strokeColor=default;endFill=0;" edge="1" parent="1" source="eN_zWoKMtYBoBzhjnoyu-54">
          <mxGeometry width="50" height="50" relative="1" as="geometry">
            <mxPoint x="1430" y="450" as="sourcePoint" />
            <mxPoint x="1490" y="550" as="targetPoint" />
            <Array as="points">
              <mxPoint x="1940" y="590" />
              <mxPoint x="1490" y="590" />
            </Array>
          </mxGeometry>
        </mxCell>
        <mxCell id="mPpl8cgrafQ_4U4LnAEe-11" value="" style="endArrow=classic;html=1;rounded=0;dashed=1;exitX=0.25;exitY=1;exitDx=0;exitDy=0;entryX=0.5;entryY=0;entryDx=0;entryDy=0;" edge="1" parent="1" source="eN_zWoKMtYBoBzhjnoyu-22" target="eN_zWoKMtYBoBzhjnoyu-5">
          <mxGeometry width="50" height="50" relative="1" as="geometry">
            <mxPoint x="680" y="970" as="sourcePoint" />
            <mxPoint x="960" y="1450" as="targetPoint" />
            <Array as="points">
              <mxPoint x="1030" y="1160" />
            </Array>
          </mxGeometry>
        </mxCell>
        <mxCell id="mPpl8cgrafQ_4U4LnAEe-13" value="" style="endArrow=classic;html=1;rounded=0;exitX=0.25;exitY=0;exitDx=0;exitDy=0;entryX=0.75;entryY=1;entryDx=0;entryDy=0;dashed=1;" edge="1" parent="1" source="eN_zWoKMtYBoBzhjnoyu-10" target="eN_zWoKMtYBoBzhjnoyu-57">
          <mxGeometry width="50" height="50" relative="1" as="geometry">
            <mxPoint x="420" y="1150" as="sourcePoint" />
            <mxPoint x="118" y="370" as="targetPoint" />
            <Array as="points">
              <mxPoint x="1230" y="1320" />
              <mxPoint x="1230" y="1240" />
              <mxPoint x="1260" y="1240" />
              <mxPoint x="1260" y="850" />
              <mxPoint x="1260" y="800" />
            </Array>
          </mxGeometry>
        </mxCell>
        <mxCell id="mPpl8cgrafQ_4U4LnAEe-14" value="" style="endArrow=classic;html=1;rounded=0;exitX=0.5;exitY=0;exitDx=0;exitDy=0;dashed=1;entryX=0.5;entryY=1;entryDx=0;entryDy=0;" edge="1" parent="1" source="eN_zWoKMtYBoBzhjnoyu-10" target="eN_zWoKMtYBoBzhjnoyu-14">
          <mxGeometry width="50" height="50" relative="1" as="geometry">
            <mxPoint x="490" y="1110" as="sourcePoint" />
            <mxPoint x="1410" y="1320" as="targetPoint" />
            <Array as="points">
              <mxPoint x="1270" y="1320" />
              <mxPoint x="1415" y="1320" />
            </Array>
          </mxGeometry>
        </mxCell>
        <mxCell id="eN_zWoKMtYBoBzhjnoyu-70" value="Meccanico" style="swimlane;fontStyle=2;align=center;verticalAlign=top;childLayout=stackLayout;horizontal=1;startSize=26;horizontalStack=0;resizeParent=1;resizeLast=0;collapsible=1;marginBottom=0;rounded=0;shadow=0;strokeWidth=1;" vertex="1" parent="1">
          <mxGeometry x="2090" y="650" width="220" height="144" as="geometry">
            <mxRectangle x="230" y="140" width="160" height="26" as="alternateBounds" />
          </mxGeometry>
        </mxCell>
        <mxCell id="eN_zWoKMtYBoBzhjnoyu-71" value="" style="line;html=1;strokeWidth=1;align=left;verticalAlign=middle;spacingTop=-1;spacingLeft=3;spacingRight=3;rotatable=0;labelPosition=right;points=[];portConstraint=eastwest;" vertex="1" parent="eN_zWoKMtYBoBzhjnoyu-70">
          <mxGeometry y="26" width="220" height="28" as="geometry" />
        </mxCell>
        <mxCell id="eN_zWoKMtYBoBzhjnoyu-72" value="&lt;div&gt;&lt;div&gt;+ aggiunta kart da noleggio&lt;/div&gt;&lt;/div&gt;&lt;div&gt;+ rimozione kart&lt;/div&gt;&lt;div&gt;&lt;span style=&quot;background-color: transparent; color: light-dark(rgb(0, 0, 0), rgb(255, 255, 255));&quot;&gt;+ aggiornamento manutenzione&lt;/span&gt;&lt;br&gt;&lt;/div&gt;&lt;div&gt;+ aggiunta benzina&lt;/div&gt;" style="text;html=1;align=left;verticalAlign=middle;resizable=0;points=[];autosize=1;strokeColor=none;fillColor=none;" vertex="1" parent="eN_zWoKMtYBoBzhjnoyu-70">
          <mxGeometry y="54" width="220" height="70" as="geometry" />
        </mxCell>
        <mxCell id="eN_zWoKMtYBoBzhjnoyu-76" value="" style="endArrow=block;html=1;rounded=0;exitX=0.55;exitY=-0.011;exitDx=0;exitDy=0;strokeColor=default;endFill=0;exitPerimeter=0;" edge="1" parent="1" source="eN_zWoKMtYBoBzhjnoyu-70">
          <mxGeometry width="50" height="50" relative="1" as="geometry">
            <mxPoint x="2210" y="640" as="sourcePoint" />
            <mxPoint x="1510" y="530" as="targetPoint" />
            <Array as="points">
              <mxPoint x="2211" y="530" />
            </Array>
          </mxGeometry>
        </mxCell>
        <mxCell id="eN_zWoKMtYBoBzhjnoyu-77" value="Gara" style="swimlane;fontStyle=2;align=center;verticalAlign=top;childLayout=stackLayout;horizontal=1;startSize=26;horizontalStack=0;resizeParent=1;resizeLast=0;collapsible=1;marginBottom=0;rounded=0;shadow=0;strokeWidth=1;" vertex="1" parent="1">
          <mxGeometry x="320" y="600" width="160" height="120" as="geometry">
            <mxRectangle x="230" y="140" width="160" height="26" as="alternateBounds" />
          </mxGeometry>
        </mxCell>
        <mxCell id="eN_zWoKMtYBoBzhjnoyu-78" value="- dati della gara&#xa;" style="text;align=left;verticalAlign=top;spacingLeft=4;spacingRight=4;overflow=hidden;rotatable=0;points=[[0,0.5],[1,0.5]];portConstraint=eastwest;" vertex="1" parent="eN_zWoKMtYBoBzhjnoyu-77">
          <mxGeometry y="26" width="160" height="64" as="geometry" />
        </mxCell>
        <mxCell id="eN_zWoKMtYBoBzhjnoyu-79" value="" style="line;html=1;strokeWidth=1;align=left;verticalAlign=middle;spacingTop=-1;spacingLeft=3;spacingRight=3;rotatable=0;labelPosition=right;points=[];portConstraint=eastwest;" vertex="1" parent="eN_zWoKMtYBoBzhjnoyu-77">
          <mxGeometry y="90" width="160" height="8" as="geometry" />
        </mxCell>
        <mxCell id="eN_zWoKMtYBoBzhjnoyu-80" value="Libera" style="swimlane;fontStyle=2;align=center;verticalAlign=top;childLayout=stackLayout;horizontal=1;startSize=26;horizontalStack=0;resizeParent=1;resizeLast=0;collapsible=1;marginBottom=0;rounded=0;shadow=0;strokeWidth=1;" vertex="1" parent="1">
          <mxGeometry x="170" y="830" width="160" height="120" as="geometry">
            <mxRectangle x="230" y="140" width="160" height="26" as="alternateBounds" />
          </mxGeometry>
        </mxCell>
        <mxCell id="eN_zWoKMtYBoBzhjnoyu-82" value="" style="line;html=1;strokeWidth=1;align=left;verticalAlign=middle;spacingTop=-1;spacingLeft=3;spacingRight=3;rotatable=0;labelPosition=right;points=[];portConstraint=eastwest;" vertex="1" parent="eN_zWoKMtYBoBzhjnoyu-80">
          <mxGeometry y="26" width="160" height="28" as="geometry" />
        </mxCell>
        <mxCell id="eN_zWoKMtYBoBzhjnoyu-83" value="" style="endArrow=block;html=1;rounded=0;exitX=0.5;exitY=0;exitDx=0;exitDy=0;strokeColor=default;endFill=0;" edge="1" parent="1" source="eN_zWoKMtYBoBzhjnoyu-80">
          <mxGeometry width="50" height="50" relative="1" as="geometry">
            <mxPoint x="460" y="830" as="sourcePoint" />
            <mxPoint x="340" y="720" as="targetPoint" />
            <Array as="points">
              <mxPoint x="250" y="790" />
              <mxPoint x="340" y="790" />
            </Array>
          </mxGeometry>
        </mxCell>
        <mxCell id="eN_zWoKMtYBoBzhjnoyu-84" value="Secca" style="swimlane;fontStyle=2;align=center;verticalAlign=top;childLayout=stackLayout;horizontal=1;startSize=26;horizontalStack=0;resizeParent=1;resizeLast=0;collapsible=1;marginBottom=0;rounded=0;shadow=0;strokeWidth=1;" vertex="1" parent="1">
          <mxGeometry x="460" y="830" width="160" height="120" as="geometry">
            <mxRectangle x="230" y="140" width="160" height="26" as="alternateBounds" />
          </mxGeometry>
        </mxCell>
        <mxCell id="eN_zWoKMtYBoBzhjnoyu-86" value="" style="line;html=1;strokeWidth=1;align=left;verticalAlign=middle;spacingTop=-1;spacingLeft=3;spacingRight=3;rotatable=0;labelPosition=right;points=[];portConstraint=eastwest;" vertex="1" parent="eN_zWoKMtYBoBzhjnoyu-84">
          <mxGeometry y="26" width="160" height="28" as="geometry" />
        </mxCell>
        <mxCell id="eN_zWoKMtYBoBzhjnoyu-87" value="" style="endArrow=block;html=1;rounded=0;exitX=0.5;exitY=0;exitDx=0;exitDy=0;strokeColor=default;endFill=0;entryX=0.75;entryY=1;entryDx=0;entryDy=0;" edge="1" parent="1" source="eN_zWoKMtYBoBzhjnoyu-84" target="eN_zWoKMtYBoBzhjnoyu-77">
          <mxGeometry width="50" height="50" relative="1" as="geometry">
            <mxPoint x="750" y="830" as="sourcePoint" />
            <mxPoint x="630" y="720" as="targetPoint" />
            <Array as="points">
              <mxPoint x="540" y="790" />
              <mxPoint x="440" y="790" />
            </Array>
          </mxGeometry>
        </mxCell>
        <mxCell id="eN_zWoKMtYBoBzhjnoyu-89" value="" style="endArrow=classic;html=1;rounded=0;exitX=0;exitY=0.5;exitDx=0;exitDy=0;dashed=1;startFill=0;endFill=1;entryX=1;entryY=0.5;entryDx=0;entryDy=0;" edge="1" parent="1" source="eN_zWoKMtYBoBzhjnoyu-30">
          <mxGeometry width="50" height="50" relative="1" as="geometry">
            <mxPoint x="830" y="830" as="sourcePoint" />
            <mxPoint x="620" y="878" as="targetPoint" />
          </mxGeometry>
        </mxCell>
        <mxCell id="mPpl8cgrafQ_4U4LnAEe-16" value="Circuito" style="swimlane;fontStyle=2;align=center;verticalAlign=top;childLayout=stackLayout;horizontal=1;startSize=26;horizontalStack=0;resizeParent=1;resizeLast=0;collapsible=1;marginBottom=0;rounded=0;shadow=0;strokeWidth=1;" vertex="1" parent="1">
          <mxGeometry x="30" y="600" width="160" height="120" as="geometry">
            <mxRectangle x="230" y="140" width="160" height="26" as="alternateBounds" />
          </mxGeometry>
        </mxCell>
        <mxCell id="mPpl8cgrafQ_4U4LnAEe-17" value="- dati del circuito" style="text;align=left;verticalAlign=top;spacingLeft=4;spacingRight=4;overflow=hidden;rotatable=0;points=[[0,0.5],[1,0.5]];portConstraint=eastwest;" vertex="1" parent="mPpl8cgrafQ_4U4LnAEe-16">
          <mxGeometry y="26" width="160" height="64" as="geometry" />
        </mxCell>
        <mxCell id="mPpl8cgrafQ_4U4LnAEe-18" value="" style="line;html=1;strokeWidth=1;align=left;verticalAlign=middle;spacingTop=-1;spacingLeft=3;spacingRight=3;rotatable=0;labelPosition=right;points=[];portConstraint=eastwest;" vertex="1" parent="mPpl8cgrafQ_4U4LnAEe-16">
          <mxGeometry y="90" width="160" height="8" as="geometry" />
        </mxCell>
        <mxCell id="mPpl8cgrafQ_4U4LnAEe-19" value="" style="endArrow=classic;html=1;rounded=0;entryX=-0.004;entryY=0.205;entryDx=0;entryDy=0;entryPerimeter=0;dashed=1;exitX=0.999;exitY=0.207;exitDx=0;exitDy=0;exitPerimeter=0;" edge="1" parent="1" source="mPpl8cgrafQ_4U4LnAEe-17" target="eN_zWoKMtYBoBzhjnoyu-78">
          <mxGeometry width="50" height="50" relative="1" as="geometry">
            <mxPoint x="150" y="640" as="sourcePoint" />
            <mxPoint x="-139" y="640" as="targetPoint" />
            <Array as="points">
              <mxPoint x="280" y="639" />
            </Array>
          </mxGeometry>
        </mxCell>
        <mxCell id="eN_zWoKMtYBoBzhjnoyu-91" value="Kart" style="swimlane;fontStyle=2;align=center;verticalAlign=top;childLayout=stackLayout;horizontal=1;startSize=26;horizontalStack=0;resizeParent=1;resizeLast=0;collapsible=1;marginBottom=0;rounded=0;shadow=0;strokeWidth=1;" vertex="1" parent="1">
          <mxGeometry x="340" y="360" width="160" height="128" as="geometry">
            <mxRectangle x="230" y="140" width="160" height="26" as="alternateBounds" />
          </mxGeometry>
        </mxCell>
        <mxCell id="eN_zWoKMtYBoBzhjnoyu-92" value="- dati del kart" style="text;align=left;verticalAlign=top;spacingLeft=4;spacingRight=4;overflow=hidden;rotatable=0;points=[[0,0.5],[1,0.5]];portConstraint=eastwest;" vertex="1" parent="eN_zWoKMtYBoBzhjnoyu-91">
          <mxGeometry y="26" width="160" height="64" as="geometry" />
        </mxCell>
        <mxCell id="eN_zWoKMtYBoBzhjnoyu-93" value="" style="line;html=1;strokeWidth=1;align=left;verticalAlign=middle;spacingTop=-1;spacingLeft=3;spacingRight=3;rotatable=0;labelPosition=right;points=[];portConstraint=eastwest;" vertex="1" parent="eN_zWoKMtYBoBzhjnoyu-91">
          <mxGeometry y="90" width="160" height="8" as="geometry" />
        </mxCell>
        <mxCell id="eN_zWoKMtYBoBzhjnoyu-94" value="+ getter e setter per i dati" style="text;html=1;align=center;verticalAlign=middle;resizable=0;points=[];autosize=1;strokeColor=none;fillColor=none;" vertex="1" parent="eN_zWoKMtYBoBzhjnoyu-91">
          <mxGeometry y="98" width="160" height="30" as="geometry" />
        </mxCell>
        <mxCell id="eN_zWoKMtYBoBzhjnoyu-95" value="" style="endArrow=classic;html=1;rounded=0;entryX=0.25;entryY=0;entryDx=0;entryDy=0;dashed=1;exitX=0.125;exitY=1.067;exitDx=0;exitDy=0;exitPerimeter=0;" edge="1" parent="1" source="eN_zWoKMtYBoBzhjnoyu-94" target="eN_zWoKMtYBoBzhjnoyu-77">
          <mxGeometry width="50" height="50" relative="1" as="geometry">
            <mxPoint x="380" y="1070" as="sourcePoint" />
            <mxPoint x="509" y="1070" as="targetPoint" />
          </mxGeometry>
        </mxCell>
        <mxCell id="eN_zWoKMtYBoBzhjnoyu-96" value="" style="endArrow=classic;html=1;rounded=0;entryX=-0.003;entryY=0.672;entryDx=0;entryDy=0;entryPerimeter=0;dashed=1;exitX=0.625;exitY=1.067;exitDx=0;exitDy=0;exitPerimeter=0;" edge="1" parent="1" source="eN_zWoKMtYBoBzhjnoyu-94" target="eN_zWoKMtYBoBzhjnoyu-15">
          <mxGeometry width="50" height="50" relative="1" as="geometry">
            <mxPoint x="423" y="498" as="sourcePoint" />
            <mxPoint x="424" y="609" as="targetPoint" />
            <Array as="points">
              <mxPoint x="440" y="570" />
              <mxPoint x="560" y="570" />
              <mxPoint x="560" y="730" />
              <mxPoint x="960" y="730" />
              <mxPoint x="960" y="1080" />
            </Array>
          </mxGeometry>
        </mxCell>
        <mxCell id="eN_zWoKMtYBoBzhjnoyu-97" value="" style="endArrow=classic;html=1;rounded=0;entryX=0.75;entryY=1.067;entryDx=0;entryDy=0;dashed=1;exitX=-0.004;exitY=0.538;exitDx=0;exitDy=0;entryPerimeter=0;exitPerimeter=0;" edge="1" parent="1" source="eN_zWoKMtYBoBzhjnoyu-42" target="eN_zWoKMtYBoBzhjnoyu-94">
          <mxGeometry width="50" height="50" relative="1" as="geometry">
            <mxPoint x="370" y="500" as="sourcePoint" />
            <mxPoint x="370" y="610" as="targetPoint" />
            <Array as="points">
              <mxPoint x="460" y="520" />
            </Array>
          </mxGeometry>
        </mxCell>
        <mxCell id="eN_zWoKMtYBoBzhjnoyu-98" value="" style="endArrow=classic;html=1;rounded=0;dashed=1;exitX=1.006;exitY=0.213;exitDx=0;exitDy=0;entryX=-0.007;entryY=0.542;entryDx=0;entryDy=0;entryPerimeter=0;exitPerimeter=0;" edge="1" parent="1" source="eN_zWoKMtYBoBzhjnoyu-92" target="mPpl8cgrafQ_4U4LnAEe-3">
          <mxGeometry width="50" height="50" relative="1" as="geometry">
            <mxPoint x="939.5" y="340" as="sourcePoint" />
            <mxPoint x="620" y="270" as="targetPoint" />
            <Array as="points">
              <mxPoint x="920" y="400" />
              <mxPoint x="920" y="470" />
            </Array>
          </mxGeometry>
        </mxCell>
        <mxCell id="eN_zWoKMtYBoBzhjnoyu-99" value="Prenotazione" style="swimlane;fontStyle=2;align=center;verticalAlign=top;childLayout=stackLayout;horizontal=1;startSize=26;horizontalStack=0;resizeParent=1;resizeLast=0;collapsible=1;marginBottom=0;rounded=0;shadow=0;strokeWidth=1;" vertex="1" parent="1">
          <mxGeometry x="320" y="1120" width="160" height="138" as="geometry">
            <mxRectangle x="230" y="140" width="160" height="26" as="alternateBounds" />
          </mxGeometry>
        </mxCell>
        <mxCell id="eN_zWoKMtYBoBzhjnoyu-100" value="- dati della prenotazione" style="text;align=left;verticalAlign=top;spacingLeft=4;spacingRight=4;overflow=hidden;rotatable=0;points=[[0,0.5],[1,0.5]];portConstraint=eastwest;" vertex="1" parent="eN_zWoKMtYBoBzhjnoyu-99">
          <mxGeometry y="26" width="160" height="64" as="geometry" />
        </mxCell>
        <mxCell id="eN_zWoKMtYBoBzhjnoyu-101" value="" style="line;html=1;strokeWidth=1;align=left;verticalAlign=middle;spacingTop=-1;spacingLeft=3;spacingRight=3;rotatable=0;labelPosition=right;points=[];portConstraint=eastwest;" vertex="1" parent="eN_zWoKMtYBoBzhjnoyu-99">
          <mxGeometry y="90" width="160" height="8" as="geometry" />
        </mxCell>
        <mxCell id="eN_zWoKMtYBoBzhjnoyu-102" value="+ metodi per gestire le&amp;nbsp;&lt;div&gt;prenotazioni&lt;/div&gt;" style="text;html=1;align=left;verticalAlign=middle;resizable=0;points=[];autosize=1;strokeColor=none;fillColor=none;" vertex="1" parent="eN_zWoKMtYBoBzhjnoyu-99">
          <mxGeometry y="98" width="160" height="40" as="geometry" />
        </mxCell>
        <mxCell id="eN_zWoKMtYBoBzhjnoyu-103" value="" style="endArrow=classic;html=1;rounded=0;dashed=1;exitX=0.5;exitY=0;exitDx=0;exitDy=0;entryX=0.5;entryY=1;entryDx=0;entryDy=0;" edge="1" parent="1" source="eN_zWoKMtYBoBzhjnoyu-99" target="eN_zWoKMtYBoBzhjnoyu-77">
          <mxGeometry width="50" height="50" relative="1" as="geometry">
            <mxPoint x="370" y="500" as="sourcePoint" />
            <mxPoint x="390" y="720" as="targetPoint" />
          </mxGeometry>
        </mxCell>
        <mxCell id="eN_zWoKMtYBoBzhjnoyu-104" value="interfaccia InventarioAcquisti" style="swimlane;fontStyle=2;align=center;verticalAlign=top;childLayout=stackLayout;horizontal=1;startSize=26;horizontalStack=0;resizeParent=1;resizeLast=0;collapsible=1;marginBottom=0;rounded=0;shadow=0;strokeWidth=1;" vertex="1" parent="1">
          <mxGeometry x="1790" y="1040" width="217" height="74" as="geometry">
            <mxRectangle x="90" y="600" width="160" height="26" as="alternateBounds" />
          </mxGeometry>
        </mxCell>
        <mxCell id="eN_zWoKMtYBoBzhjnoyu-105" value="" style="line;html=1;strokeWidth=1;align=left;verticalAlign=middle;spacingTop=-1;spacingLeft=3;spacingRight=3;rotatable=0;labelPosition=right;points=[];portConstraint=eastwest;" vertex="1" parent="eN_zWoKMtYBoBzhjnoyu-104">
          <mxGeometry y="26" width="217" height="8" as="geometry" />
        </mxCell>
        <mxCell id="eN_zWoKMtYBoBzhjnoyu-106" value="+ metodi per vedere pezzi e kart&lt;div&gt;+ metodi per vedere lo stato del kart&lt;/div&gt;" style="text;html=1;align=left;verticalAlign=middle;resizable=0;points=[];autosize=1;strokeColor=none;fillColor=none;" vertex="1" parent="eN_zWoKMtYBoBzhjnoyu-104">
          <mxGeometry y="34" width="217" height="40" as="geometry" />
        </mxCell>
        <mxCell id="eN_zWoKMtYBoBzhjnoyu-107" value="" style="endArrow=classic;html=1;rounded=0;dashed=1;dashPattern=12 12;endFill=0;entryX=-0.005;entryY=0.288;entryDx=0;entryDy=0;entryPerimeter=0;exitX=1.031;exitY=0.75;exitDx=0;exitDy=0;exitPerimeter=0;" edge="1" parent="1" source="eN_zWoKMtYBoBzhjnoyu-15" target="eN_zWoKMtYBoBzhjnoyu-106">
          <mxGeometry width="50" height="50" relative="1" as="geometry">
            <mxPoint x="2213" y="1363" as="sourcePoint" />
            <mxPoint x="1740" y="1130" as="targetPoint" />
          </mxGeometry>
        </mxCell>
        <mxCell id="eN_zWoKMtYBoBzhjnoyu-108" value="" style="endArrow=classic;html=1;rounded=0;dashed=1;dashPattern=12 12;endFill=0;entryX=1.009;entryY=0.281;entryDx=0;entryDy=0;entryPerimeter=0;exitX=0.199;exitY=1.025;exitDx=0;exitDy=0;exitPerimeter=0;" edge="1" parent="1" source="eN_zWoKMtYBoBzhjnoyu-72" target="eN_zWoKMtYBoBzhjnoyu-106">
          <mxGeometry width="50" height="50" relative="1" as="geometry">
            <mxPoint x="1436" y="1094" as="sourcePoint" />
            <mxPoint x="1799" y="1096" as="targetPoint" />
            <Array as="points">
              <mxPoint x="2130" y="1085" />
            </Array>
          </mxGeometry>
        </mxCell>
        <mxCell id="eN_zWoKMtYBoBzhjnoyu-109" value="" style="endArrow=classic;html=1;rounded=0;dashed=1;dashPattern=12 12;endFill=0;entryX=0.25;entryY=0;entryDx=0;entryDy=0;exitX=0.75;exitY=1;exitDx=0;exitDy=0;" edge="1" parent="1" source="eN_zWoKMtYBoBzhjnoyu-22" target="eN_zWoKMtYBoBzhjnoyu-104">
          <mxGeometry width="50" height="50" relative="1" as="geometry">
            <mxPoint x="1130" y="630" as="sourcePoint" />
            <mxPoint x="1799" y="1096" as="targetPoint" />
            <Array as="points">
              <mxPoint x="1110" y="960" />
              <mxPoint x="1844" y="960" />
            </Array>
          </mxGeometry>
        </mxCell>
        <mxCell id="eN_zWoKMtYBoBzhjnoyu-110" value="DBConnector" style="swimlane;fontStyle=2;align=center;verticalAlign=top;childLayout=stackLayout;horizontal=1;startSize=26;horizontalStack=0;resizeParent=1;resizeLast=0;collapsible=1;marginBottom=0;rounded=0;shadow=0;strokeWidth=1;" vertex="1" parent="1">
          <mxGeometry x="600" y="1120" width="160" height="150" as="geometry">
            <mxRectangle x="230" y="140" width="160" height="26" as="alternateBounds" />
          </mxGeometry>
        </mxCell>
        <mxCell id="eN_zWoKMtYBoBzhjnoyu-111" value="- String url;&#xa;- String user;&#xa;- String pwd" style="text;align=left;verticalAlign=top;spacingLeft=4;spacingRight=4;overflow=hidden;rotatable=0;points=[[0,0.5],[1,0.5]];portConstraint=eastwest;" vertex="1" parent="eN_zWoKMtYBoBzhjnoyu-110">
          <mxGeometry y="26" width="160" height="64" as="geometry" />
        </mxCell>
        <mxCell id="eN_zWoKMtYBoBzhjnoyu-112" value="" style="line;html=1;strokeWidth=1;align=left;verticalAlign=middle;spacingTop=-1;spacingLeft=3;spacingRight=3;rotatable=0;labelPosition=right;points=[];portConstraint=eastwest;" vertex="1" parent="eN_zWoKMtYBoBzhjnoyu-110">
          <mxGeometry y="90" width="160" height="8" as="geometry" />
        </mxCell>
        <mxCell id="eN_zWoKMtYBoBzhjnoyu-113" value="+ openConnection();&#xa;+ closeConnection();&#xa;+ qualche get e set" style="text;align=left;verticalAlign=top;spacingLeft=4;spacingRight=4;overflow=hidden;rotatable=0;points=[[0,0.5],[1,0.5]];portConstraint=eastwest;" vertex="1" parent="eN_zWoKMtYBoBzhjnoyu-110">
          <mxGeometry y="98" width="160" height="52" as="geometry" />
        </mxCell>
        <mxCell id="mPpl8cgrafQ_4U4LnAEe-20" value="" style="endArrow=classic;html=1;rounded=0;exitX=0;exitY=0.5;exitDx=0;exitDy=0;dashed=1;startFill=0;endFill=1;entryX=1;entryY=0.5;entryDx=0;entryDy=0;" edge="1" parent="1" source="eN_zWoKMtYBoBzhjnoyu-111" target="eN_zWoKMtYBoBzhjnoyu-100">
          <mxGeometry width="50" height="50" relative="1" as="geometry">
            <mxPoint x="640" y="1076.41" as="sourcePoint" />
            <mxPoint x="520" y="1076.41" as="targetPoint" />
          </mxGeometry>
        </mxCell>
        <mxCell id="mPpl8cgrafQ_4U4LnAEe-21" value="" style="endArrow=classic;html=1;rounded=0;exitX=1.005;exitY=0.833;exitDx=0;exitDy=0;dashed=1;startFill=0;endFill=1;entryX=0;entryY=0.367;entryDx=0;entryDy=0;entryPerimeter=0;exitPerimeter=0;" edge="1" parent="1" source="eN_zWoKMtYBoBzhjnoyu-111" target="eN_zWoKMtYBoBzhjnoyu-17">
          <mxGeometry width="50" height="50" relative="1" as="geometry">
            <mxPoint x="610" y="1188" as="sourcePoint" />
            <mxPoint x="490" y="1188" as="targetPoint" />
            <Array as="points">
              <mxPoint x="920" y="1200" />
              <mxPoint x="1000" y="1200" />
              <mxPoint x="1140" y="1200" />
              <mxPoint x="1140" y="1130" />
            </Array>
          </mxGeometry>
        </mxCell>
        <mxCell id="mPpl8cgrafQ_4U4LnAEe-22" value="" style="endArrow=classic;html=1;rounded=0;exitX=0.5;exitY=0;exitDx=0;exitDy=0;dashed=1;startFill=0;endFill=1;entryX=1;entryY=0.84;entryDx=0;entryDy=0;entryPerimeter=0;" edge="1" parent="1" source="eN_zWoKMtYBoBzhjnoyu-110" target="eN_zWoKMtYBoBzhjnoyu-92">
          <mxGeometry width="50" height="50" relative="1" as="geometry">
            <mxPoint x="620" y="1198" as="sourcePoint" />
            <mxPoint x="680" y="440" as="targetPoint" />
            <Array as="points">
              <mxPoint x="680" y="440" />
            </Array>
          </mxGeometry>
        </mxCell>
        <mxCell id="mPpl8cgrafQ_4U4LnAEe-23" value="" style="endArrow=classic;html=1;rounded=0;exitX=1.004;exitY=0.211;exitDx=0;exitDy=0;dashed=1;startFill=0;endFill=1;exitPerimeter=0;entryX=0.25;entryY=1;entryDx=0;entryDy=0;" edge="1" parent="1" source="eN_zWoKMtYBoBzhjnoyu-111" target="eN_zWoKMtYBoBzhjnoyu-57">
          <mxGeometry width="50" height="50" relative="1" as="geometry">
            <mxPoint x="610" y="1188" as="sourcePoint" />
            <mxPoint x="1230" y="700" as="targetPoint" />
            <Array as="points">
              <mxPoint x="1000" y="1160" />
              <mxPoint x="1000" y="700" />
              <mxPoint x="1180" y="700" />
            </Array>
          </mxGeometry>
        </mxCell>
        <mxCell id="eN_zWoKMtYBoBzhjnoyu-114" value="interfaccia Classifica" style="swimlane;fontStyle=2;align=center;verticalAlign=top;childLayout=stackLayout;horizontal=1;startSize=26;horizontalStack=0;resizeParent=1;resizeLast=0;collapsible=1;marginBottom=0;rounded=0;shadow=0;strokeWidth=1;" vertex="1" parent="1">
          <mxGeometry x="570" y="1550" width="230" height="74" as="geometry">
            <mxRectangle x="90" y="600" width="160" height="26" as="alternateBounds" />
          </mxGeometry>
        </mxCell>
        <mxCell id="eN_zWoKMtYBoBzhjnoyu-115" value="" style="line;html=1;strokeWidth=1;align=left;verticalAlign=middle;spacingTop=-1;spacingLeft=3;spacingRight=3;rotatable=0;labelPosition=right;points=[];portConstraint=eastwest;" vertex="1" parent="eN_zWoKMtYBoBzhjnoyu-114">
          <mxGeometry y="26" width="230" height="8" as="geometry" />
        </mxCell>
        <mxCell id="eN_zWoKMtYBoBzhjnoyu-116" value="+ metodo per generare una classifica?" style="text;html=1;align=left;verticalAlign=middle;resizable=0;points=[];autosize=1;strokeColor=none;fillColor=none;" vertex="1" parent="eN_zWoKMtYBoBzhjnoyu-114">
          <mxGeometry y="34" width="230" height="30" as="geometry" />
        </mxCell>
      </root>
    </mxGraphModel>
  </diagram>
</mxfile>
